<svg width="71" height="71" viewBox="0 0 71 71" fill="none" xmlns="http://www.w3.org/2000/svg">
<g clip-path="url(#clip0_0_522)">
<path d="M58.2191 30.6421L58.3527 38.4705H58.2859L56.0193 30.645H52.2911V40.5017H54.7553L54.6216 32.4088H54.6884L57.1177 40.5017H60.6833V30.645L58.2191 30.6421ZM11.2891 30.6421L9.42643 40.6034H12.1231L13.4889 31.5429H13.5557L14.8895 40.6034H17.5513L15.7206 30.645L11.2891 30.6421ZM26.3445 30.6421L25.1124 38.238H25.0455L23.8134 30.645H19.7539L19.5534 40.6034H22.0525L22.1193 31.6446H22.1513L23.8164 40.6034H26.3474L28.0124 31.6446H28.0793L28.1461 40.6034H30.6452L30.4127 30.645L26.3445 30.6421ZM5.23034 37.7731C5.30609 38.01 5.31713 38.2628 5.26231 38.5054C5.19547 38.8366 4.963 39.1708 4.29755 39.1708C3.66407 39.1708 3.29793 38.8047 3.29793 38.27V37.3052H0.63324V38.0724C0.63324 40.3041 2.39711 40.9696 4.26559 40.9696C6.06142 40.9696 7.56086 40.3361 7.79333 38.703C7.927 37.837 7.8282 37.2733 7.79333 37.0728C7.32839 34.9747 3.5304 34.3732 3.26306 33.208C3.22981 33.0323 3.22981 32.8519 3.26306 32.6762C3.3299 32.342 3.56527 32.0078 4.16388 32.0078C4.7625 32.0078 5.09377 32.3769 5.09377 32.9086V33.5073H7.59282V32.8098C7.59282 30.645 5.62845 30.3108 4.23072 30.3108C2.46394 30.3108 0.999381 30.9094 0.73204 32.5105C0.644586 32.9512 0.656499 33.4059 0.76691 33.8414C1.16502 35.9046 4.73053 36.5061 5.23034 37.7702M37.6367 37.7702C37.7355 38.0027 37.7006 38.3049 37.6687 38.5054C37.6018 38.8366 37.3694 39.1708 36.7039 39.1708C36.0704 39.1708 35.7043 38.8047 35.7043 38.27V37.3052H33.0396V38.0724C33.0396 40.2692 34.7715 40.9347 36.6371 40.9347C38.4358 40.9347 39.9004 40.3361 40.1329 38.671C40.2665 37.8051 40.1677 37.2733 40.1329 37.0379C39.7348 34.9747 35.9687 34.3412 35.7043 33.208C35.6708 33.0323 35.6708 32.8518 35.7043 32.6762C35.7711 32.342 36.0036 32.0078 36.6051 32.0078C37.1689 32.0078 37.535 32.3769 37.535 32.9086V33.5073H39.9992V32.8098C39.9992 30.645 38.0668 30.3108 36.6691 30.3108C34.9052 30.3108 33.4726 30.8774 33.2052 32.5105C33.1384 32.9435 33.1384 33.3416 33.2401 33.8414C33.6382 35.9046 37.134 36.4713 37.6367 37.7702ZM46.0289 39.104C46.7263 39.104 46.9297 38.639 46.9937 38.3717C47.0285 38.27 47.0285 38.1044 47.0285 38.0056V30.6421H49.5566V37.8022C49.5566 38.0027 49.5566 38.3688 49.5276 38.4705C49.359 40.3332 47.8945 40.9318 46.0609 40.9318C44.2302 40.9318 42.7656 40.3332 42.5971 38.4676C42.5971 38.3688 42.5651 38.0027 42.5651 37.8022V30.6421H45.0932V38.0027C45.0932 38.1363 45.0932 38.2671 45.1281 38.3688C45.1281 38.6332 45.3315 39.1011 46.0289 39.1011M66.8118 39.0023C67.544 39.0023 67.7765 38.5373 67.8433 38.2671C67.8753 38.1683 67.8753 38.0027 67.8753 37.9009V36.4683H66.8437V35.0038H70.3744V37.6685C70.3744 37.869 70.3744 38.0027 70.3424 38.3368C70.1739 40.1675 68.6076 40.7981 66.8437 40.7981C65.0798 40.7981 63.5136 40.1675 63.3479 38.3339C63.3131 38.0027 63.3131 37.869 63.3131 37.6685V33.4724C63.3131 33.3068 63.3479 32.9726 63.3479 32.804C63.5804 30.9414 65.0798 30.3428 66.8437 30.3428C68.6076 30.3428 70.1419 30.9414 70.3395 32.8069C70.3744 33.1062 70.3744 33.4724 70.3744 33.4724V33.8066H67.8753V33.2399C67.8753 33.2399 67.8753 33.0074 67.8433 32.8738C67.8085 32.6413 67.6109 32.1415 66.8437 32.1415C66.1114 32.1415 65.9138 32.6064 65.8441 32.8738C65.8121 33.0045 65.8121 33.1731 65.8121 33.3387V37.9009C65.8121 38.0346 65.8121 38.1683 65.8441 38.2671C65.8441 38.5344 66.1114 39.0023 66.8118 39.0023Z" fill="#A9A9B9"/>
</g>
<defs>
<clipPath id="clip0_0_522">
<rect width="69.7411" height="69.7411" fill="white" transform="translate(0.634033 0.768677)"/>
</clipPath>
</defs>
</svg>
