<svg width="49" height="156" viewBox="0 0 49 156" fill="none" xmlns="http://www.w3.org/2000/svg">
<g clip-path="url(#clip0_0_345)">
<path d="M55.6713 64.8092C61.6164 64.8092 66.3738 66.2939 70.008 69.5989C72.4932 71.8517 73.881 75.0599 73.8423 78.423C73.8332 80.0824 73.4889 81.7228 72.83 83.2458C72.1711 84.7688 71.2112 86.143 70.008 87.2858C66.6062 90.41 61.3066 92.0755 55.6777 92.0755C50.0424 92.0755 44.8332 90.41 41.3797 87.2858C40.1346 86.173 39.1428 84.8059 38.4713 83.277C37.7998 81.748 37.4643 80.0927 37.4873 78.423C37.4873 75.0792 38.8945 71.8711 41.3797 69.5989C44.6073 66.6683 50.3136 64.8092 55.6713 64.8092ZM55.6906 88.4993C58.6664 88.4993 61.4227 87.4601 63.3593 85.5429C65.2958 83.6064 66.1543 81.2826 66.1543 78.423C66.1543 75.686 65.199 73.1233 63.3593 71.303C61.4615 69.431 58.6277 68.366 55.6906 68.366C52.7536 68.366 49.9263 69.4246 48.0091 71.303C46.1694 73.1233 45.2076 75.686 45.2076 78.423C45.1683 81.0724 46.1749 83.6306 48.0091 85.5429C49.9263 87.4407 52.7407 88.4993 55.6906 88.4993ZM24.4416 75.7957C25.4744 76.0669 26.475 76.4025 27.4497 76.8479C28.354 77.2597 29.1814 77.823 29.8962 78.5133C31.1678 79.8431 31.8908 81.6247 31.8714 83.4579C31.8852 84.4299 31.6711 85.3917 31.2463 86.266C30.8214 87.1404 30.1977 87.9031 29.4249 88.4929C28.058 89.529 26.5041 90.2917 24.8483 90.7393C22.3559 91.5215 19.7526 91.8921 17.1409 91.8366C14.8687 91.8366 13.6164 91.572 11.8929 91.2105L11.3959 91.1072C9.4967 90.6872 7.64208 90.0863 5.85744 89.3127C5.77765 89.2586 5.68265 89.2315 5.58633 89.2352C5.44477 89.2386 5.31015 89.2972 5.21124 89.3985C5.11232 89.4998 5.05697 89.6358 5.05701 89.7774V91.0878H1.26143V81.5472H4.64389C4.66471 82.5144 4.97252 83.4536 5.52823 84.2454C6.89671 85.9238 8.36847 86.5693 9.76922 87.0857C12.1382 87.8603 14.6234 88.2734 17.1022 88.3509C20.6718 88.3509 22.7568 87.4859 23.2087 87.2987L23.2668 87.2729L23.3055 87.26C23.7057 87.1115 25.3195 86.5241 25.3195 84.7296C25.3195 82.9609 23.809 82.5736 22.8214 82.3218L22.6794 82.2896C21.582 81.9926 19.0516 81.7215 16.2888 81.431L15.3077 81.3277C12.7169 81.0639 10.1388 80.687 7.58095 80.1981C4.36632 79.4881 3.10112 78.3132 2.3136 77.5838L2.26196 77.5322C1.11395 76.3081 0.476676 74.6918 0.480363 73.0136C0.480363 69.8119 2.67509 67.8754 5.36686 66.6876C8.24582 65.3966 11.667 64.8221 14.6622 64.8221C19.9553 64.8415 24.2609 66.565 25.8101 67.3654C26.4362 67.7011 26.7461 67.288 26.7461 66.9781V66.0163H30.1479V74.3304H27.1011C26.8276 73.0967 26.1617 71.9847 25.2033 71.161C24.6192 70.6913 23.9743 70.3026 23.2861 70.0055C20.7322 68.9272 17.9829 68.3887 15.2108 68.4241C12.3512 68.4241 9.6143 68.9727 8.23937 69.8119C7.3873 70.3412 6.94835 71.0061 6.94835 71.7871C6.94835 72.9039 7.89079 73.3493 8.36847 73.4848C9.63366 73.8721 12.4481 74.1497 14.6363 74.3692L15.9532 74.5047C18.064 74.7178 22.4857 75.3052 24.4416 75.7957ZM141.711 69.36V66.2681H155.402V69.3019H152.33C151.219 69.3019 150.767 69.515 149.928 70.4574L140.717 80.9792C140.62 81.1086 140.576 81.2703 140.594 81.431V86.2207C140.61 86.4434 140.636 86.6653 140.672 86.8856C140.727 87.026 140.814 87.1516 140.926 87.2525C141.038 87.3533 141.172 87.4266 141.317 87.4665C141.595 87.5075 141.876 87.5291 142.156 87.5311H145.294V90.565H128.678V87.5311H131.648C131.928 87.5291 132.209 87.5076 132.487 87.4665C132.634 87.4245 132.771 87.3507 132.887 87.2503C133.003 87.15 133.095 87.0255 133.158 86.8856C133.197 86.6726 133.216 86.4565 133.216 86.2401V81.4504C133.216 81.289 133.216 81.289 133.003 81.0373C129.971 77.5828 126.933 74.1336 123.889 70.6898C123.398 70.1798 122.559 69.36 121.268 69.36H118.311V66.3262H135.017V69.36H133.003C132.551 69.36 132.241 69.8119 132.629 70.3025L138.303 77.0868C138.361 77.1642 138.4 77.1642 138.477 77.1061C138.554 77.048 144.248 70.3606 144.287 70.3025C144.334 70.2407 144.368 70.1703 144.387 70.0952C144.407 70.0202 144.411 69.942 144.401 69.8651C144.39 69.7883 144.364 69.7144 144.324 69.6476C144.285 69.5809 144.233 69.5226 144.17 69.4762C144.055 69.4008 143.921 69.3604 143.783 69.36H141.711ZM101.147 69.3407H104.278C105.705 69.3407 105.956 69.8893 105.976 71.2191L106.156 81.3277L89.4894 66.3262H77.5798V69.36H80.2393C82.1565 69.36 82.292 70.4187 82.292 71.3611V85.6462C82.292 86.4724 82.2985 87.5504 81.1172 87.5504H77.8509V90.565H91.8197V87.5311H88.4114C87.0429 87.5311 86.9913 86.9049 86.9655 85.5752V73.4267L106.156 90.5391H111.043L110.785 71.1997C110.811 69.7925 110.907 69.3213 112.353 69.3213H115.407V66.2874H101.147V69.3407Z" fill="#A9A9B9"/>
</g>
<defs>
<clipPath id="clip0_0_345">
<rect width="154.922" height="154.922" fill="white" transform="translate(0.480347 0.982056)"/>
</clipPath>
</defs>
</svg>
