<svg width="102" height="101" viewBox="0 0 102 101" fill="none" xmlns="http://www.w3.org/2000/svg">
<g clip-path="url(#clip0_0_343)">
<path d="M23.0126 28.2808C17.135 28.2808 11.4982 30.6156 7.34212 34.7717C3.18605 38.9278 0.851196 44.5646 0.851196 50.4422C0.851196 56.3197 3.18605 61.9566 7.34212 66.1127C11.4982 70.2687 17.135 72.6036 23.0126 72.6036C28.8155 72.4907 34.3427 70.1062 38.4066 65.9625C42.4706 61.8187 44.7471 56.2462 44.7471 50.4422C44.7471 44.6381 42.4706 39.0657 38.4066 34.9219C34.3427 30.7781 28.8155 28.3936 23.0126 28.2808ZM23.0126 31.8863C23.2222 31.8863 23.6666 31.8863 23.893 31.8947V33.6262C23.5996 33.6199 23.3061 33.6157 23.0126 33.6136C20.8035 33.6081 18.6153 34.0406 16.5744 34.8862C14.5336 35.7317 12.6806 36.9735 11.1228 38.5397C9.55578 40.0971 8.31348 41.9499 7.46787 43.9909C6.62226 46.0319 6.19016 48.2204 6.1966 50.4296C6.1966 54.9239 7.94486 59.1499 11.1228 62.3194C12.6806 63.8857 14.5336 65.1275 16.5744 65.973C18.6153 66.8186 20.8035 67.2511 23.0126 67.2456C27.2754 67.2378 31.3768 65.6154 34.4908 62.7051C37.6049 59.7949 39.5002 55.813 39.7951 51.5616V51.31H28.3161V49.5911H40.8138L41.5559 49.5869V50.4296C41.5636 52.8656 41.0881 55.279 40.1569 57.53C39.2257 59.781 37.8573 61.825 36.1309 63.5436C34.4111 65.2715 32.3659 66.6413 30.1135 67.5739C27.8611 68.5065 25.4462 68.9834 23.0084 68.9771C18.0613 68.9771 13.4077 67.0486 9.88597 63.5436C8.1603 61.8247 6.79264 59.7805 5.86216 57.5295C4.93167 55.2785 4.45683 52.8653 4.46511 50.4296C4.47065 45.5118 6.42641 40.797 9.90342 37.3192C13.3804 33.8414 18.0948 31.8846 23.0126 31.8779V31.8863ZM90.3563 35.5673C81.0909 35.5673 76.2193 40.6276 76.2193 50.2745C76.2193 59.8752 80.6214 65.0739 90.306 65.0739C94.75 65.0739 99.106 63.9419 101.471 62.2859V48.3837H89.9832V53.7249H95.3705V58.7349C94.3769 59.1122 92.4358 59.4937 90.5911 59.4937C84.6378 59.4937 82.6505 56.4668 82.6505 50.3206C82.6505 44.4595 84.5371 41.0049 90.4988 41.0049C93.8109 41.0049 95.6975 42.0446 97.2613 44.0319L101.378 40.2503C98.8712 36.6573 94.4733 35.5673 90.3521 35.5673H90.3563ZM55.085 35.9949V64.6463H75.4185V59.0703H61.7091V35.9907L55.085 35.9949ZM15.9357 40.7031C16.6418 40.7031 17.3189 40.9835 17.8182 41.4828C18.3175 41.9821 18.5979 42.6592 18.5979 43.3653C18.5979 44.0713 18.3175 44.7485 17.8182 45.2478C17.3189 45.747 16.6418 46.0275 15.9357 46.0275C15.2296 46.0275 14.5525 45.747 14.0532 45.2478C13.554 44.7485 13.2735 44.0713 13.2735 43.3653C13.2735 42.6592 13.554 41.9821 14.0532 41.4828C14.5525 40.9835 15.2296 40.7031 15.9357 40.7031ZM22.1322 40.7114H23.893V58.4037H28.3035V60.1394H22.1322V40.7114Z" fill="#A9A9B9"/>
</g>
<defs>
<clipPath id="clip0_0_343">
<rect width="100.619" height="100.619" fill="white" transform="translate(0.853149 0.133301)"/>
</clipPath>
</defs>
</svg>
