<svg width="65" height="175" viewBox="0 0 65 175" fill="none" xmlns="http://www.w3.org/2000/svg">
<g clip-path="url(#clip0_0_326)">
<path d="M34.0026 74.9098L34.3378 94.5408H34.1702L28.4864 74.9171H19.1373V99.6343H25.3166L24.9814 79.3402H25.149L31.2409 99.6343H40.1819V74.9171L34.0026 74.9098ZM-83.6811 74.9098L-88.352 99.8894H-81.5898L-78.1649 77.1688H-77.9973L-74.6526 99.8894H-67.9778L-72.5686 74.9171L-83.6811 74.9098ZM-45.9276 74.9098L-49.0172 93.9578H-49.1848L-52.2745 74.9171H-62.4543L-62.9571 99.8894H-56.6904L-56.5228 77.4238H-56.4426L-52.2672 99.8894H-45.9203L-41.7449 77.4238H-41.5773L-41.4097 99.8894H-35.1429L-35.7259 74.9171L-45.9276 74.9098ZM-98.8743 92.7919C-98.6844 93.3859 -98.6567 94.0199 -98.7942 94.6282C-98.9618 95.4589 -99.5447 96.2969 -101.213 96.2969C-102.802 96.2969 -103.72 95.3788 -103.72 94.038V91.6187H-110.402V93.5425C-110.402 99.1388 -105.979 100.808 -101.294 100.808C-96.7903 100.808 -93.0302 99.219 -92.4473 95.1237C-92.1121 92.9522 -92.3598 91.5386 -92.4473 91.0358C-93.6132 85.7746 -103.137 84.2662 -103.808 81.3442C-103.891 80.9036 -103.891 80.4512 -103.808 80.0106C-103.64 79.1727 -103.05 78.3347 -101.549 78.3347C-100.048 78.3347 -99.2168 79.2601 -99.2168 80.5936V82.0947H-92.9501V80.3458C-92.9501 74.9171 -97.876 74.0791 -101.381 74.0791C-105.811 74.0791 -109.484 75.5802 -110.154 79.5953C-110.374 80.7004 -110.344 81.8406 -110.067 82.9327C-109.069 88.1064 -100.128 89.6148 -98.8743 92.7846M-17.6106 92.7846C-17.3629 93.3676 -17.4503 94.1254 -17.5305 94.6282C-17.6981 95.4589 -18.281 96.2969 -19.9497 96.2969C-21.5383 96.2969 -22.4564 95.3788 -22.4564 94.038V91.6187H-29.1385V93.5425C-29.1385 99.0514 -24.7955 100.72 -20.1173 100.72C-15.6067 100.72 -11.9341 99.219 -11.3512 95.0436C-11.016 92.8721 -11.2637 91.5386 -11.3512 90.9483C-12.3495 85.7746 -21.7933 84.1861 -22.4564 81.3442C-22.5405 80.9036 -22.5405 80.4512 -22.4564 80.0106C-22.2888 79.1727 -21.7059 78.3347 -20.1975 78.3347C-18.7838 78.3347 -17.8657 79.2601 -17.8657 80.5936V82.0947H-11.6864V80.3458C-11.6864 74.9171 -16.5322 74.0791 -20.0372 74.0791C-24.4603 74.0791 -28.0528 75.5001 -28.7232 79.5953C-28.8908 80.681 -28.8908 81.6793 -28.6357 82.9327C-27.6374 88.1064 -18.8713 89.5274 -17.6106 92.7846ZM3.43399 96.1293C5.18285 96.1293 5.69294 94.9634 5.85325 94.293C5.9407 94.038 5.94069 93.6226 5.94069 93.3749V74.9098H12.2803V92.8648C12.2803 93.3676 12.2803 94.2857 12.2074 94.5408C11.7848 99.2117 8.1122 100.713 3.51415 100.713C-1.07661 100.713 -4.74921 99.2117 -5.17186 94.5335C-5.17186 94.2857 -5.25201 93.3676 -5.25201 92.8648V74.9098H1.08761V93.3676C1.08761 93.7028 1.08761 94.0307 1.17505 94.2857C1.17505 94.9488 1.68513 96.122 3.43399 96.122M55.55 95.8743C57.3863 95.8743 57.9693 94.7084 58.1369 94.0307C58.217 93.7829 58.217 93.3676 58.217 93.1125V89.5201H55.6302V85.8475H64.4838V92.5296C64.4838 93.0324 64.4838 93.3676 64.4036 94.2056C63.981 98.7963 60.0533 100.378 55.6302 100.378C51.207 100.378 47.2794 98.7963 46.864 94.1983C46.7766 93.3676 46.7766 93.0324 46.7766 92.5296V82.0073C46.7766 81.5919 46.864 80.7539 46.864 80.3313C47.447 75.6604 51.207 74.1593 55.6302 74.1593C60.0533 74.1593 63.9008 75.6604 64.3963 80.3386C64.4838 81.0891 64.4838 82.0073 64.4838 82.0073V82.8453H58.217V81.4243C58.217 81.4243 58.217 80.8414 58.1369 80.5062C58.0494 79.9232 57.5539 78.6699 55.6302 78.6699C53.7939 78.6699 53.2984 79.8358 53.1235 80.5062C53.0433 80.8341 53.0433 81.2567 53.0433 81.6721V93.1125C53.0433 93.4477 53.0433 93.7829 53.1235 94.0307C53.1235 94.7011 53.7939 95.8743 55.55 95.8743Z" fill="#A9A9B9"/>
</g>
<defs>
<clipPath id="clip0_0_326">
<rect width="174.886" height="174.886" fill="white" transform="translate(-110.402)"/>
</clipPath>
</defs>
</svg>
